SIPNOSIS

Ralph el Demoledor anhela ser amado y respetado como suele pasar con, Felix el Reparador, el chico bueno del videojuego al que pertenece. El problema es que nadie quiere a los villanos y por eso Ralph sale de su juego y se aventura en un moderno reto que lo podría coronar como el héroe que quiere ser. Sin embargo, todo sale mal para Ralph y, aunque consigue ganar su valiosa medalla, provoca un accidente que podría terminar con todos los juegos de video. Con la ayuda de un curiosa pequeñita, Ralph tendrá que arreglar todos los problemas antes de que sea demasiado tarde.


DATOS TECNICOS

Format                                   : Matroska
Format version                           : Version 4 / Version 2
File size                                : 3.75 GiB
Duration                                 : 1h 41mn
Overall bit rate                         : 5 305 Kbps
Encoded date                             : UTC 2013-02-18 03:39:23
Writing application                      : mkvmerge v6.0.0 ('Coming Up For Air') built on Jan 20 2013 09:52:00
Writing library                          : libebml v1.3.0 + libmatroska v1.4.0

Video
ID                                       : 1
Format                                   : AVC
Format/Info                              : Advanced Video Codec
Format profile                           : High@L4.1
Format settings, CABAC                   : Yes
Format settings, ReFrames                : 5 frames
Codec ID                                 : V_MPEG4/ISO/AVC
Duration                                 : 1h 41mn
Bit rate                                 : 4 663 Kbps
Width                                    : 1 280 pixels
Height                                   : 536 pixels
Display aspect ratio                     : 2.40:1
Frame rate mode                          : Constant
Frame rate                               : 23.976 fps
Color space                              : YUV
Chroma subsampling                       : 4:2:0
Bit depth                                : 8 bits
Scan type                                : Progressive
Bits/(Pixel*Frame)                       : 0.283
Stream size                              : 3.22 GiB (86%)
Writing library                          : x264 core 129 r2245 bc13772
Encoding settings                        : cabac=1 / ref=5 / deblock=1:0:0 / analyse=0x3:0x133 / me=umh / subme=7 / psy=1 / psy_rd=1.00:0.00 / mixed_ref=1 / me_range=16 / chroma_me=1 / trellis=1 / 8x8dct=1 / cqm=0 / deadzone=21,11 / fast_pskip=0 / chroma_qp_offset=-2 / threads=12 / lookahead_threads=2 / sliced_threads=0 / nr=0 / decimate=1 / interlaced=0 / bluray_compat=0 / constrained_intra=0 / bframes=3 / b_pyramid=2 / b_adapt=1 / b_bias=0 / direct=1 / weightb=1 / open_gop=0 / weightp=2 / keyint=250 / keyint_min=23 / scenecut=40 / intra_refresh=0 / rc_lookahead=40 / rc=2pass / mbtree=1 / bitrate=4663 / ratetol=1.0 / qcomp=0.60 / qpmin=0 / qpmax=69 / qpstep=4 / cplxblur=20.0 / qblur=0.5 / ip_ratio=1.40 / aq=1:1.00
Language                                 : English
Default                                  : Yes
Forced                                   : No

Audio
ID                                       : 2
Format                                   : AC-3
Format/Info                              : Audio Coding 3
Mode extension                           : CM (complete main)
Format settings, Endianness              : Big
Codec ID                                 : A_AC3
Duration                                 : 1h 41mn
Bit rate mode                            : Constant
Bit rate                                 : 640 Kbps
Channel(s)                               : 6 channels
Channel positions                        : Front: L C R, Side: L R, LFE
Sampling rate                            : 48.0 KHz
Bit depth                                : 16 bits
Compression mode                         : Lossy
Stream size                              : 463 MiB (12%)
Title                                    : Español Latino
Language                                 : Spanish
Default                                  : Yes
Forced                                   : No

Text
ID                                       : 3
Format                                   : UTF-8
Codec ID                                 : S_TEXT/UTF8
Codec ID/Info                            : UTF-8 Plain Text
Title                                    : Forzados
Language                                 : Spanish
Default                                  : Yes
Forced                                   : Yes

Menu
00:00:00.000                             : en:00:00:00.000
00:07:12.140                             : en:00:07:12.140
00:16:34.910                             : en:00:16:34.910
00:27:07.501                             : en:00:27:07.501
00:37:25.952                             : en:00:37:25.952
00:44:46.684                             : en:00:44:46.684
00:48:45.130                             : en:00:48:45.130
00:51:36.009                             : en:00:51:36.009
00:58:56.032                             : en:00:58:56.032
01:09:07.893                             : en:01:09:07.893
01:13:39.623                             : en:01:13:39.623
01:15:56.802                             : en:01:15:56.802
01:18:52.978                             : en:01:18:52.978
01:21:53.742                             : en:01:21:53.742
01:27:25.365                             : en:01:27:25.365
01:33:10.543                             : en:01:33:10.543
